<?xml version="1.0" encoding="UTF-8"?>
<svg id="Layer_1" data-name="Layer 1" xmlns="http://www.w3.org/2000/svg" xmlns:xlink="http://www.w3.org/1999/xlink" viewBox="0 0 467.2821 185.4294">
  <g id="logoMark">
    <a xlink:href="11.1423529411765">
      <polyline id="logoMark_PathItem_" data-name="logoMark &amp;lt;PathItem&amp;gt;" points="374.5674 92.7147 467.2433 185.4294 318.9386 185.4294 318.9393 147.7613 374.5681 147.7613 337.2576 111.7727 281.7184 111.2577 281.7184 185.4294 237.3497 185.4294 237.3497 0 281.8527 0 281.8527 74.1718 337.3919 73.6567 374.5681 37.0411 318.9386 37.0859 319.0723 .0448 467.2821 0" style="fill: #e2e3e2;"/>
    </a>
    <a xlink:href="46.8678431372549">
      <polyline id="logoMark_PathItem_-2" data-name="logoMark &amp;lt;PathItem&amp;gt;" points="92.7147 92.7147 .0388 185.4294 148.3435 185.4294 148.3428 147.7613 92.714 147.7613 130.0246 111.7727 185.5638 111.2577 185.5638 185.4294 229.9325 185.4294 229.9325 0 185.4294 0 185.4294 74.1718 129.8902 73.6567 92.714 37.0411 148.3435 37.0859 148.2099 .0448 0 0" style="fill: #f2632c;"/>
    </a>
  </g>
</svg>